<svg xmlns="http://www.w3.org/2000/svg" xmlns:xlink="http://www.w3.org/1999/xlink" viewBox="0 0 500 500" xmlns:v="https://vecta.io/nano"><style><![CDATA[.B{fill:#263238}.C{opacity:.2}.D{fill:#407bff}.E{fill:#e0e0e0}.F{fill:#455a64}.G{fill:#aa6550}.H{fill:#ebebeb}.I{fill:#f5f5f5}.J{fill:#fafafa}.K{fill:#b78876}]]></style><path d="M438.73 282.83s-9.71-6.69-22.15 16.6-17.26 36.78-17.26 36.78-3.26 4.87-6.59 1.58-7.78-12.52-13.57-11c-6 1.59-8.1 8.21-7.15 18s2.24 31.39 2.35 33.34-1 4.71-3.67 2.84-17.58-19.21-25.38-11.62-.67 34.5.06 37.45.12 4.2-1.29 4.9-5.89-5.6-10.35-10.35-10.46-9.49-14.59-4.73-5.81 24.81 12.66 57.78l9.56 14.72 17.61-.64c37.62-3.65 53.12-16.48 54.67-22.59s-5.76-8.33-12.21-9.28-14.18-1-14.41-2.59.45-2.76 3.29-3.85 29-10.59 30.78-21.33-21-13.13-24-14.21-1.4-3.63.24-4.63l28.71-17.11c8.6-4.83 12.84-10.32 10.72-16.16-2.05-5.62-12.17-4-16.77-4.87s-2.46-6.31-2.46-6.31 8.32-11.64 20.34-35.16.69-27.72.69-27.72" class="I"/><g class="E"><path d="M342.33 465.6l35.27-67.1 35.4-67 10.62-20.37 2.89-5.54.76-1.44.28-.48s-.07.18-.23.51l-.71 1.46-2.8 5.58-10.47 20.45-35.26 67.09-35.41 67"/><path d="M384.88 340a5.77 5.77 0 0 1 .42 1.2l.93 3.33c.74 2.82 1.66 6.74 2.6 11.09l2.37 11.13.74 3.37a5.82 5.82 0 0 1 .22 1.25 5.37 5.37 0 0 1-.43-1.2c-.24-.78-.55-1.92-.91-3.33-.71-2.83-1.58-6.76-2.52-11.11l-2.45-11.11-.75-3.37a5.12 5.12 0 0 1-.22-1.25zm8.88 31.68c0-.14 8-2.4 17.87-5l18-4.53c0 .14-8 2.41-17.87 5.05s-17.96 4.63-18 4.48zm-23.12 39.19a5.4 5.4 0 0 1 1.29 0l3.53.08c3 .06 7.07.13 11.61 0l11.6-.47 3.51-.21a5.92 5.92 0 0 1 1.3 0 5.61 5.61 0 0 1-1.28.23l-3.5.38c-3 .27-7.08.55-11.62.63s-8.67-.05-11.64-.21l-3.52-.25a5.66 5.66 0 0 1-1.28-.18zM356.29 384a4.91 4.91 0 0 1 .67 1l1.64 2.81 5.25 9.38 5.1 9.45 1.49 2.89a4.63 4.63 0 0 1 .48 1.1 5.6 5.6 0 0 1-.66-1l-1.65-2.81-5.24-9.37-5.11-9.45-1.49-2.9a5.61 5.61 0 0 1-.48-1.1zm-24.81 32a8.53 8.53 0 0 1 .84 1.28l2.12 3.59 6.82 12 6.67 12 2 3.67a8.25 8.25 0 0 1 .66 1.39 8.53 8.53 0 0 1-.84-1.28L347.6 445c-1.77-3-4.18-7.27-6.82-12l-6.67-12-2-3.68a8 8 0 0 1-.63-1.32zm18.85 33a8.57 8.57 0 0 1 1.64-.08l4.47-.06 14.73-.42c5.73-.27 10.95-.63 14.71-.92l4.45-.35a8.47 8.47 0 0 1 1.64-.06 10.46 10.46 0 0 1-1.61.27c-1.05.14-2.57.33-4.45.52a253.42 253.42 0 0 1-14.72 1.08c-5.72.25-11 .31-14.75.26-1.89 0-3.41-.06-4.47-.11a9.56 9.56 0 0 1-1.64-.13z"/><rect x="111.5" y="62.7" width="90.75" height="124.67" rx="2.41" transform="matrix(.901077 -.433659 .433659 .901077 -38.71 80.41)"/></g><path d="M94.673 88.759l72.645-34.962 50.322 104.561-72.645 34.962z" class="J"/><path d="M146.53 65.74a9.86 9.86 0 0 0-10.33-1.08l-2.2-4.42a6.78 6.78 0 0 0-9.06-3.17h0a6.79 6.79 0 0 0-3.17 9.05l2.23 4.64-1.55.78a9.87 9.87 0 0 0-5.45 8.7v2.3l31.63-15.22zm-16.88.72a3.66 3.66 0 1 1 1.71-4.88 3.65 3.65 0 0 1-1.71 4.88z" class="H"/><g class="E"><path d="M128.73 90.6c.06.13-4.29 2.36-9.73 5s-9.9 4.64-10 4.51 4.29-2.36 9.73-5 9.94-4.64 10-4.51zm-8.6 8.23a27.07 27.07 0 0 1-4.64 2.52 26.69 26.69 0 0 1-4.86 2.05 27.91 27.91 0 0 1 4.64-2.52 26.69 26.69 0 0 1 4.86-2.05zm50.73-13.02c.06.13-12.16 6.15-27.3 13.43l-27.52 13c-.06-.09 12.16-6.14 27.3-13.43l27.52-13zm2.51 5.19c.07.13-12.16 6.14-27.29 13.43l-27.53 13c-.07-.09 12.16-6.14 27.3-13.43l27.52-13zm2.52 5.27c.06.13-12.16 6.14-27.3 13.43l-27.52 13c-.06-.09 12.16-6.14 27.3-13.43l27.52-13zm2.52 5.23c.06.13-12.16 6.14-27.3 13.42l-27.52 13c-.06-.09 12.15-6.14 27.3-13.43l27.52-12.99zm2.51 5.22c.07.13-12.16 6.15-27.29 13.43l-27.53 13c-.07-.09 12.16-6.14 27.3-13.43l27.52-13zm2.52 5.28c.06.13-12.16 6.14-27.3 13.43l-27.52 13c-.06-.09 12.16-6.14 27.3-13.43l27.52-13zm-25.14 17.86a5.47 5.47 0 0 1-1 .61l-2.94 1.53-9.65 4.73-9.73 4.6-3 1.34a5.8 5.8 0 0 1-1.12.42 5.06 5.06 0 0 1 1-.61l2.9-1.49 9.66-4.73 9.72-4.6 3-1.33a5.08 5.08 0 0 1 1.16-.47zm8.7-58.24a23.08 23.08 0 0 1-4.33 2.38 23.55 23.55 0 0 1-4.5 1.88 23.08 23.08 0 0 1 4.28-2.35 22.79 22.79 0 0 1 4.55-1.91zm-15.68 75.63a59.74 59.74 0 0 1-7 3.66 60.14 60.14 0 0 1-7.24 3.19 60.44 60.44 0 0 1 7-3.66 60.44 60.44 0 0 1 7.24-3.19zm2.76 4.51a61.85 61.85 0 0 1-7.12 3.72 61.44 61.44 0 0 1-7.35 3.25 61.64 61.64 0 0 1 7.12-3.72 65.61 65.61 0 0 1 7.35-3.25zm38.19-25.1a14.15 14.15 0 0 1-3.33 1.89 14.42 14.42 0 0 1-3.55 1.42 28.21 28.21 0 0 1 6.88-3.31zm2.3 4.16a14.57 14.57 0 0 1-3.33 1.89 14.25 14.25 0 0 1-3.56 1.42 14.15 14.15 0 0 1 3.33-1.89 13.8 13.8 0 0 1 3.56-1.42zM149.84 160a13.4 13.4 0 0 1-3.21 1.83 14.13 14.13 0 0 1-3.44 1.37 13.23 13.23 0 0 1 3.21-1.84 13.1 13.1 0 0 1 3.44-1.36zm47.36-24.31a14.83 14.83 0 0 1-5 2.39 14.83 14.83 0 0 1 5-2.39zm-49.03 38.92s.09-.08.28-.21l.84-.56 3.23-2.08 11.61-7.28.23-.15.1.25a6.59 6.59 0 0 1 .12 4.41 5.37 5.37 0 0 1-8.14 2.91 4.65 4.65 0 0 1-1.65-4.87 4.09 4.09 0 0 1 1-1.82 2.6 2.6 0 0 1 .38-.36 2 2 0 0 1 .45-.31.73.73 0 0 1 .7 0 1.09 1.09 0 0 1 .39.46 8.59 8.59 0 0 1 1 3.7 8.78 8.78 0 0 1-.57 3.65 5.58 5.58 0 0 1-2.15 2.85 3.19 3.19 0 0 1-3.38-.07 4.81 4.81 0 0 1-2-2.51 11.69 11.69 0 0 1 0-5.65l.06-.38.26.29a7.84 7.84 0 0 1 1.9 4.31 8.33 8.33 0 0 1-.33 3.55 7.53 7.53 0 0 1-1 2 4.69 4.69 0 0 1-.37.45c-.09.1-.13.15-.14.14a9.16 9.16 0 0 0 1.32-2.66 8.2 8.2 0 0 0 .24-3.45 7.6 7.6 0 0 0-1.88-4.1l.31-.1a11.42 11.42 0 0 0 0 5.45 4.37 4.37 0 0 0 1.83 2.25 2.7 2.7 0 0 0 2.89.06 5.15 5.15 0 0 0 1.94-2.62 8.51 8.51 0 0 0-.44-6.92.81.81 0 0 0-.2-.24.22.22 0 0 0-.22 0 2.46 2.46 0 0 0-.65.54 3.65 3.65 0 0 0-.84 1.59 4.16 4.16 0 0 0 1.45 4.33 4.88 4.88 0 0 0 7.39-2.64 6.15 6.15 0 0 0-.09-4.09l.33.11-11.71 7.16-3.3 2-.88.51a1.2 1.2 0 0 1-.31.1zm51.92-25.21a3.42 3.42 0 0 1-.16.94 4 4 0 0 1-.46 1.06 2.22 2.22 0 0 1-1.25.95 1.5 1.5 0 0 1-1 0 2 2 0 0 1-.83-.65 19 19 0 0 1-1.12-1.9l-2.48-4.54.45-.1-.26 7.41-.07 1.85v1l-.45-.93-3.76-7.73h.42a26.28 26.28 0 0 0-.95 7v2.69a3.17 3.17 0 0 1-.14-.7 19.78 19.78 0 0 1-.17-2 24.39 24.39 0 0 1 .78-7.09l.15-.58.26.54 3.82 7.69-.49.1.07-1.85.3-7.41v-.9l.42.79 2.42 4.57a20.08 20.08 0 0 0 1 1.89 1.35 1.35 0 0 0 1.45.61 2.57 2.57 0 0 0 1.64-1.78 7.54 7.54 0 0 1 .41-.93z"/><path d="M200 145.65c.09.12-4 3.07-9.21 6.59s-9.43 6.27-9.51 6.15 4-3.07 9.21-6.58 9.41-6.27 9.51-6.16zm5.06.88a82.84 82.84 0 0 1-6.76 6.15 81.34 81.34 0 0 1-7.1 5.76 80.85 80.85 0 0 1 6.76-6.15 78 78 0 0 1 7.1-5.76z"/></g><path d="M391.56 196.1l-13.72 34.6a4.38 4.38 0 0 0 2.46 5.7l28.14 11.21a4.4 4.4 0 0 0 5.72-2.46l13.65-34.28a9.78 9.78 0 0 0-5.46-12.69h0l2-5-18.42-7.34-1.9 4.77h-.07a9.78 9.78 0 0 0-12.4 5.49z" class="I"/><path d="M405.67 186.44l-.91 2.3 18.17 7.99 1.17-2.95-18.43-7.34z" class="E"/><path d="M409.38 179.051l17.168 6.839a3 3 0 0 1 1.677 3.897l-1.813 4.552a1.93 1.93 0 0 1-2.507 1.079l-19.147-7.627a1.93 1.93 0 0 1-1.079-2.507l1.813-4.552a3 3 0 0 1 3.897-1.677z" class="H"/><path d="M405.87 188.27a22.61 22.61 0 0 1 1.57-4.65 23.64 23.64 0 0 1 2.05-4.46 22.61 22.61 0 0 1-1.57 4.65 23.64 23.64 0 0 1-2.05 4.46zm2.42.97a23 23 0 0 1 1.58-4.65 23.64 23.64 0 0 1 2.05-4.46 23.82 23.82 0 0 1-1.57 4.65 23 23 0 0 1-2.06 4.46zm2.43.96a23.82 23.82 0 0 1 1.57-4.65 23.72 23.72 0 0 1 2.06-4.45 23.82 23.82 0 0 1-1.57 4.65 22.32 22.32 0 0 1-2.06 4.45zm2.43.97a23.59 23.59 0 0 1 1.57-4.65 23 23 0 0 1 2.06-4.46 23.36 23.36 0 0 1-1.57 4.65 24 24 0 0 1-2.06 4.46zm2.43.97a23.36 23.36 0 0 1 1.57-4.65 22.59 22.59 0 0 1 2.06-4.46 23.49 23.49 0 0 1-1.58 4.65 24 24 0 0 1-2.05 4.46zm2.42.96a23 23 0 0 1 1.57-4.65 23.35 23.35 0 0 1 2.05-4.45 23 23 0 0 1-1.57 4.65 23.35 23.35 0 0 1-2.05 4.45zm2.44.97a23 23 0 0 1 1.57-4.65 24 24 0 0 1 2.05-4.46 22.61 22.61 0 0 1-1.57 4.65 23.64 23.64 0 0 1-2.05 4.46zm2.42.93a23 23 0 0 1 1.58-4.65 23.64 23.64 0 0 1 2.05-4.46 23.36 23.36 0 0 1-1.57 4.65 22.59 22.59 0 0 1-2.06 4.46z" class="E"/><rect x="390.24" y="207.71" width="28.42" height="18.8" rx="1.48" transform="matrix(.929003 .370071 -.370071 .929003 109.04 -134.25)" class="H"/><path d="M412.88 229.19a2.78 2.78 0 0 1 .1-.3l.3-.82 1.17-3.08 4.28-11 .12.26-23.16-9.16.33-.15h0 0v.07l-.05.12-.1.25-.2.51-.4 1-.79 2-1.54 3.87-2.94 7.3-.13-.31 16.56 6.73 4.77 2 1.27.54.45.21a2.77 2.77 0 0 1-.42-.13l-1.25-.47-4.76-1.83-16.8-6.56-.22-.09.09-.22 2.89-7.31 1.54-3.87.79-2 .4-1 .2-.5.1-.25.05-.13v-.06h0 0 0l.34-.15 23.13 9.18.19.08-.07.19-4.53 11.07-1.25 3a14.69 14.69 0 0 0-.33.77c-.08.21-.12.25-.13.24zm.51-11.68a66.83 66.83 0 0 1-8-2.89 70.12 70.12 0 0 1-7.77-3.37 69.79 69.79 0 0 1 8 2.89 71.17 71.17 0 0 1 7.77 3.37zm-1.07 2.68a70.58 70.58 0 0 1-8-2.89 66.2 66.2 0 0 1-7.76-3.38 70.58 70.58 0 0 1 8 2.89 66.2 66.2 0 0 1 7.76 3.38zm-1.02 2.56a68.48 68.48 0 0 1-8-2.88 70 70 0 0 1-7.77-3.38 69 69 0 0 1 8 2.89 70.12 70.12 0 0 1 7.77 3.37zm10.06-25.15a78.4 78.4 0 0 1-8.68-3.17 84.43 84.43 0 0 1-8.49-3.66 80.94 80.94 0 0 1 8.68 3.17 84.43 84.43 0 0 1 8.49 3.66z" class="E"/><path d="M380.15 229.32a10 10 0 0 1 .55-1.66l1.7-4.45 5.78-14.6 3.25-8a17.34 17.34 0 0 1 3.65-6.08 7.67 7.67 0 0 1 4.25-2.17 5.59 5.59 0 0 1 1.31 0 2.07 2.07 0 0 1 .45.1 11.62 11.62 0 0 0-1.73.1 7.82 7.82 0 0 0-4 2.23 17.64 17.64 0 0 0-3.47 6l-3.2 8-5.93 14.55-1.85 4.39a12.85 12.85 0 0 1-.76 1.59zm31.62 18.1a8 8 0 0 1-1.11-.9l-1.27-1.07-1.74-1.36a49.78 49.78 0 0 0-4.76-3.15 51.94 51.94 0 0 0-6.29-3.06 54 54 0 0 0-6.68-2.11 48.24 48.24 0 0 0-5.63-1c-.81-.12-1.55-.15-2.19-.2l-1.66-.1a8.67 8.67 0 0 1-1.42-.11 6.64 6.64 0 0 1 1.42-.09 15.69 15.69 0 0 1 1.67 0c.66 0 1.4 0 2.22.13a42 42 0 0 1 5.7.88 49.52 49.52 0 0 1 6.76 2.08 48.63 48.63 0 0 1 6.34 3.13 44.75 44.75 0 0 1 4.75 3.28c.66.5 1.2 1 1.7 1.43l1.22 1.14a7.38 7.38 0 0 1 .97 1.08z" fill="#fff"/><path d="M107.22 458.15c22.53-11.42 30.95-37.35 33.52-61.37.43-4 1.46-8.15.06-11.92s-5.49-6.79-9.3-5.61c-3.16 1-4.94 4.24-7 6.85a23.56 23.56 0 0 1-10.62 7.61c-2.73 1-6 1.32-8.3-.42-3.17-2.38-2.9-7.19-2.32-11.16q1.65-11.13 3.28-22.13c.59-4 1.18-8 .47-11.95s-2.93-7.83-6.55-9.42-8.6-.08-9.95 3.7c-.56 1.57-.47 3.29-.81 4.92s-1.37 3.35-3 3.58-3.08-1.11-4.1-2.43c-3.53-4.59-5.58-10.15-7.45-15.65s-3.65-11.11-6.74-16-7.75-9.13-13.41-10.26-12.19 1.52-14.41 6.9.22 11.53 3.13 16.56a89.44 89.44 0 0 0 16 20.19c1.12 1.06 2.34 2.22 2.61 3.75.49 2.77-2.39 5-5.13 5.54-3.09.57-6.26-.19-9.4-.27s-6.69.82-8.28 3.58c-2.2 3.82.59 8.56 3.53 11.81a76.84 76.84 0 0 0 20.6 16.15c2.77 1.48 5.71 2.85 7.77 5.23s3 6.16 1.17 8.75-5.6 3-8.58 2-5.48-3-8.23-4.56c-5.17-2.83-12.26-3.45-16.42.77-2.74 2.77-3.55 7.06-2.91 10.91s2.54 7.38 4.63 10.66c7.28 11.5 17.3 21.33 29.33 27.51s23.58 9 36.81 6.21" class="I"/><g class="E"><path d="M105.32,470.48c.48-9.59-.32-15.63-2.15-28.19A361,361,0,0,0,94.48,402q-1.44-5.28-2.82-10.44c-.94-3.42-1.86-6.82-3-10.08a182.4,182.4,0,0,0-7.46-18.41c-2.66-5.74-5.39-11.08-8-16.07s-5.12-9.57-7.58-13.66a142.83,142.83,0,0,0-13.07-18.42c-1.7-2.05-3.08-3.59-4-4.62l-1.08-1.17a2.88,2.88,0,0,0-.39-.38,2.84,2.84,0,0,0,.33.43l1,1.22c.91,1.06,2.25,2.64,3.92,4.71a150.57,150.57,0,0,1,12.84,18.5c2.43,4.1,4.91,8.7,7.48,13.68s5.27,10.34,7.9,16.08A178.29,178.29,0,0,1,88,381.72c1.1,3.25,2,6.62,3,10s1.86,6.92,2.81,10.44a365.88,365.88,0,0,1,8.74,40.19c1.86,12.51,2.71,18.5,2.3,28.06"/><path d="M88.48 381.43a8.14 8.14 0 0 0 .63-1.64l1.4-4.57c1.12-3.87 2.48-9.27 4-15.22l4.1-15.17 1.42-4.55a7.63 7.63 0 0 0 .47-1.69 7.71 7.71 0 0 0-.74 1.59c-.43 1-1 2.58-1.64 4.49-1.31 3.81-2.84 9.18-4.32 15.14L90 375.09l-1.17 4.62a8 8 0 0 0-.35 1.72z"/><path d="M38.81 364.67a12.47 12.47 0 0 0 2 .53l5.47 1.33c4.6 1.16 10.9 3 17.76 5.33s13 4.72 17.35 6.57l5.17 2.23a11.56 11.56 0 0 0 1.92.77 11.33 11.33 0 0 0-1.8-1c-1.18-.61-2.91-1.47-5.08-2.45-4.34-2-10.45-4.44-17.33-6.79A177.26 177.26 0 0 0 46.4 366c-2.32-.54-4.22-.89-5.53-1.11a11.42 11.42 0 0 0-2.06-.22zm63.86 76.6s.17-.19.44-.58l1.14-1.72 4-6.45c3.29-5.5 7.6-13.23 12.23-21.83l12-21.93 3.77-6.57 1-1.79a3 3 0 0 0 .31-.65s-.17.18-.44.57L136 382c-1 1.5-2.34 3.71-4 6.46-3.29 5.49-7.6 13.23-12.23 21.83l-12 21.92-3.78 6.57-1 1.79a2.75 2.75 0 0 0-.32.7z"/><path d="M38 409.81a2.34 2.34 0 0 0 .64.38l1.87.94 6.93 3.38 22.75 11.36 22.86 11.18 7 3.17 1.95.78a2.87 2.87 0 0 0 .69.24 2.74 2.74 0 0 0-.63-.38l-1.88-.93-6.92-3.39-22.75-11.36L47.63 414l-7-3.17-1.93-.81a2.85 2.85 0 0 0-.7-.21z"/></g><path d="M467.1 469.83c0 .14-96.46.26-215.42.26s-215.44-.09-215.44-.26 96.44-.26 215.44-.26l215.42.26z" class="B"/><path d="M193.65 341.44s-28.44 19.32-30 64.42c-.52 15.13 6.91 63.3 6.91 63.3l166.33.67-31.11-129.11-52.33-12z" class="D"/><g class="B"><path d="M257.19 374.92l-22.66 94.53 56.64.38-33.98-94.91z"/><path d="M256.33 354.45a20.31 20.31 0 0 1 .3 3.09l.47 7.48.32 7.48a17.76 17.76 0 0 1-.07 3.11 20.31 20.31 0 0 1-.3-3.09l-.47-7.47-.31-7.49a17.29 17.29 0 0 1 .06-3.11zm10.26 10.42c0 .05-.37.13-1 .48a4.82 4.82 0 0 0-1.89 2.1 4.07 4.07 0 0 0 .2 4 4.24 4.24 0 0 0 7.82-1.25 4.05 4.05 0 0 0-1-3.84 4.8 4.8 0 0 0-2.45-1.41c-.66-.15-1-.11-1.06-.16s.1 0 .28-.06a2.9 2.9 0 0 1 .82 0 4.71 4.71 0 0 1 2.67 1.35 4.79 4.79 0 0 1 1.14 1.78 4.36 4.36 0 0 1 .11 2.44 4.71 4.71 0 0 1-8.7 1.38 4.36 4.36 0 0 1-.65-2.35 4.8 4.8 0 0 1 .53-2 4.73 4.73 0 0 1 2.12-2.12 2.85 2.85 0 0 1 .77-.27c.19-.08.28-.09.29-.07zm18.13 51.61s-.37.14-1 .48a4.81 4.81 0 0 0-1.88 2.1 4.07 4.07 0 0 0 .2 4 4.24 4.24 0 0 0 7.82-1.25 4.06 4.06 0 0 0-1-3.84 4.78 4.78 0 0 0-2.44-1.41c-.67-.15-1.06-.11-1.06-.16a.7.7 0 0 1 .28-.06 3.26 3.26 0 0 1 .81 0 4.73 4.73 0 0 1 2.68 1.36 4.65 4.65 0 0 1 1.13 1.77 4.19 4.19 0 0 1 .11 2.44 4.69 4.69 0 0 1-8.69 1.38 4.19 4.19 0 0 1-.65-2.35 4.66 4.66 0 0 1 .53-2 4.73 4.73 0 0 1 2.12-2.12 3.1 3.1 0 0 1 .77-.27 1 1 0 0 1 .27-.07zM225.91 379a2.71 2.71 0 0 1-.36.44l-1.09 1.2a45 45 0 0 1-4.48 4 46.21 46.21 0 0 1-17.8 8.37 35.36 35.36 0 0 1-10.85.88 16.43 16.43 0 0 1-8.34-3 12.27 12.27 0 0 1-3.83-4.61 10.41 10.41 0 0 1-.54-1.54 2 2 0 0 1-.09-.56c.05 0 .2.76.82 2a12.4 12.4 0 0 0 3.86 4.39 16.42 16.42 0 0 0 8.16 2.85 36.14 36.14 0 0 0 10.7-.92 47.42 47.42 0 0 0 17.69-8.16 53.1 53.1 0 0 0 4.55-3.83l1.17-1.13c.27-.27.41-.38.43-.38zm0 9.36a2.71 2.71 0 0 1-.36.44l-1.09 1.21a45 45 0 0 1-22.28 12.35 35.38 35.38 0 0 1-10.85.89 16.52 16.52 0 0 1-8.34-3 12.18 12.18 0 0 1-3.83-4.6 10.07 10.07 0 0 1-.54-1.55 1.93 1.93 0 0 1-.09-.56c.05 0 .2.76.82 2a12.42 12.42 0 0 0 3.86 4.4 16.42 16.42 0 0 0 8.16 2.84 35.81 35.81 0 0 0 10.7-.92 47.58 47.58 0 0 0 17.69-8.15 52.87 52.87 0 0 0 4.55-3.84l1.17-1.13a2.45 2.45 0 0 1 .43-.38zm1.47-2.83a2.15 2.15 0 0 1 .07.4c0 .29.07.69.13 1.19l.5 4.59c.42 4 1.22 9.73 1.58 16.9a79.55 79.55 0 0 1-.25 11.73 50.52 50.52 0 0 1-3 13.13 33.9 33.9 0 0 1-8.09 12.45 29.85 29.85 0 0 1-6.36 4.7 25.63 25.63 0 0 1-7.68 2.71 23.43 23.43 0 0 1-15.55-2.88A30.22 30.22 0 0 1 178 440.17a40.57 40.57 0 0 1-5-12.49 58 58 0 0 1-1.38-11.68 114 114 0 0 1 1.2-16.93l.66-4.57.19-1.19a2.39 2.39 0 0 1 .09-.4 2.11 2.11 0 0 1 0 .41c0 .3-.08.69-.14 1.19l-.57 4.58a119.93 119.93 0 0 0-1 16.9 58.1 58.1 0 0 0 1.42 11.57 40.43 40.43 0 0 0 5 12.32A29.68 29.68 0 0 0 189 450a22.9 22.9 0 0 0 15.21 2.81 24.67 24.67 0 0 0 7.52-2.65 29.35 29.35 0 0 0 6.26-4.61 33.46 33.46 0 0 0 8-12.25 50.32 50.32 0 0 0 3-13 79.18 79.18 0 0 0 .31-11.67c-.31-7.15-1-12.91-1.41-16.9l-.41-4.6c0-.5-.06-.9-.08-1.2s-.02-.4-.02-.4z"/></g><g class="C"><path d="M175.34 435.06c1.8 6.1 2.57 7.68 5.94 12.55a25.17 25.17 0 0 0 12.95 9.82 23.45 23.45 0 0 0 22.48-4c6.11-5.11 8.27-13 9.33-18.35-2.66 3.58-5.49 8.67-8.84 11.62s-7.78 5.53-12.2 6.3c-6 1-13.15-.8-18.28-4.06s-8.23-9.1-11.41-13.87"/></g><g class="C"><path d="M179.62,396.27a17.18,17.18,0,0,0,12.59,9.87c5.41,1,12.42-.71,15.8-5.79-11.9,4.18-23.73,4.28-28.39-4.08"/></g><path d="M277.41 381.52a2.27 2.27 0 0 1-.77 0 12.9 12.9 0 0 1-2-.44 19.11 19.11 0 0 1-10.75-8.16 14.61 14.61 0 0 1-1-1.84c-.19-.46-.28-.71-.24-.73s.54.94 1.52 2.37a22.07 22.07 0 0 0 4.64 4.85 21.75 21.75 0 0 0 5.92 3.16l2.68.79z" class="B"/><g class="C"><path d="M263.57,371c1.23,4.18,5.87,8.08,10,9.45a6.09,6.09,0,0,0,2.53.37,2.94,2.94,0,0,0,2.18-1.21c.87-1.33.12-3.22-1.16-4.16a11.62,11.62,0,0,0-4.46-1.59c-3.19-.74-6.07.87-8.71-1.81"/></g><g class="C"><path d="M175.13,363.26c7.46,6.52,18,6.8,27.49,4s17.76-8.07,25.82-13.83c-8.79,1.75-16.29,5.76-25.16,7.07-8.47,1.25-17.28,1.38-25.61-1.45"/></g><path d="M318.19 463.42a.58.58 0 0 1-.19.11 5.12 5.12 0 0 1-.59.27 8.85 8.85 0 0 1-2.43.6 13.38 13.38 0 0 1-8.73-2.34c-3.32-2.11-6.34-5.66-9.57-9.6a103.77 103.77 0 0 1-9.31-13.74 116.18 116.18 0 0 1-11.29-27.9c-1-3.74-1.58-6.8-1.95-8.93l-.39-2.45a7.68 7.68 0 0 1-.1-.86 4.56 4.56 0 0 1 .21.84l.48 2.43c.43 2.11 1.1 5.16 2.1 8.87a121.3 121.3 0 0 0 11.39 27.74 107.1 107.1 0 0 0 9.24 13.7c3.19 3.94 6.17 7.49 9.39 9.59a13.4 13.4 0 0 0 8.55 2.45 12.11 12.11 0 0 0 3.19-.78z" class="B"/><g class="C"><path d="M282.23 426.52s14.76 18.56 25.53 23.11c3.65 1.55 7.67 2.81 10.16 5.89a6.47 6.47 0 0 1 1.55 5.22 2.88 2.88 0 0 1-.2.64c-1.55 3.95-9 3.4-12.41.9-1.49-1.09-.61-.39-1.81-1.29-3.45-2.6-21.92-23.99-22.82-34.47z"/></g><path d="M217.07 176.02l9.42-1.87 46.59.55 23.67 5.2 9.03 132.18-104.65 4.89 15.94-140.95z" class="E"/><g class="D"><path d="M284.84,306l2.23-60.12-3.71-69.71c14.72,3.79,34.85,8,46,20.71,7.23,8.25,14.32,18.8,17,35.79,3.08,20,7.14,58.25,9.68,79.65"/><path d="M299.64 296.14l-72.35 11.75-2.56-44.68-4-88.33c-21 .86-44.9 18.21-52.07 31.73-5 9.38-9.19 20.28-10.5 30.83l-9.3 75.68A44.11 44.11 0 0 0 161 349h0c10.5 10.83 26.94 14.58 41.72 11.52l110.16-31z"/></g><path d="M292 295.34a1 1 0 0 1 .05-.25q.09-.27.21-.72l.86-2.79 3.27-10.38 11.35-35.44.15.31-11.73-4.85-.46-.19.41-.27 2.71-1.78 8.85-5.78-.1.28-11.31-39.31-3.3-11.64-.86-3.15q-.13-.49-.21-.81a1.06 1.06 0 0 1-.06-.28s0 .08.1.26l.26.81.95 3.12 3.45 11.59 11.47 39.27.05.18-.16.11-8.84 5.79-2.71 1.77v-.46l11.72 4.87.22.09-.07.22-11.53 35.39-3.41 10.33-.94 2.77-.25.71a1.17 1.17 0 0 1-.14.23z" class="B"/><g class="C"><path d="M308,233.56a10.4,10.4,0,0,1-3.64,5.47c-1.38.79-.59,1.84.55,2.94,1.37,1.32,3.57,1.68,4.58,3.28s.44,3.43-.08,5.11A371,371,0,0,1,291.21,297L308,245.83,296.29,241Z"/></g><path d="M221.27 296.58a.88.88 0 0 1-.12-.21l-.28-.62-1.08-2.44-4-9.15-13.49-31.62-.08-.18.17-.12 9.25-6.62v.38l-6.13-4.86-2.72-2.14-1.35-1-.33-.27a1.15 1.15 0 0 1-.19-.17.81.81 0 0 1-.14-.28 3.76 3.76 0 0 1-.11-.91 51.63 51.63 0 0 1 .62-6.68c.61-4.33 1.33-8.49 2-12.45l4-21 2.93-14.09.85-3.83.23-1a1.2 1.2 0 0 1 .1-.33 1.85 1.85 0 0 1-.05.35c0 .25-.11.58-.18 1q-.27 1.37-.75 3.84l-2.76 14.12-3.92 21-2 12.43a51.56 51.56 0 0 0-.61 6.6 3 3 0 0 0 .09.76c0 .12.29.3.5.48l1.34 1.06 2.71 2.15 6.12 4.85.27.22-.28.2-9.26 6.6.08-.31L216.11 284l3.83 9.21 1 2.47.24.64a1.63 1.63 0 0 1 .09.26z" class="B"/><rect x="224.75" y="246.96" width="78.58" height="107.94" rx="2.41" transform="matrix(.988308 .152468 -.152468 .988308 49 -36.76)" class="D"/><g class="C"><rect x="224.75" y="246.96" width="78.58" height="107.94" rx="2.41" transform="matrix(.988308 .152468 -.152468 .988308 49 -36.76)"/></g><path d="M237.453 244.516l68.994 10.644-15.32 99.305-68.994-10.644z" class="H"/><g class="B"><path d="M285.72 253.53a8.57 8.57 0 0 0-6.85-5.83l.58-4.25a5.88 5.88 0 0 0-4.91-6.7h0a5.88 5.88 0 0 0-6.71 4.91l-.68 4.4-1.48-.2a8.53 8.53 0 0 0-8.15 3.54l-1.15 1.6 30 4.64zm-12.4-7.76a3.16 3.16 0 1 1 3.6-2.64 3.17 3.17 0 0 1-3.6 2.64zm-12.49 16.78a84.92 84.92 0 0 1-9.4-1.18 88.11 88.11 0 0 1-9.31-1.7 84.91 84.91 0 0 1 9.39 1.18 88 88 0 0 1 9.32 1.7zm-10.18 1.66a19.37 19.37 0 0 1-4.55-.44 20.23 20.23 0 0 1-4.47-.95 20.75 20.75 0 0 1 4.55.44 20.23 20.23 0 0 1 4.47.95zm42.59 15.58c0 .14-11.7-1.55-26.07-3.76l-26-4.28c0-.14 11.69 1.54 26.07 3.76l26 4.28zm-.77 4.96c0 .14-11.69-1.54-26.07-3.76l-26-4.27c0-.14 11.69 1.54 26.07 3.76l26 4.27zm-.76 4.97c0 .14-11.7-1.55-26.07-3.76l-26-4.28c0-.14 11.7 1.54 26.08 3.76l25.99 4.28zm-.77 4.96c0 .14-11.69-1.54-26.07-3.76l-26-4.28c0-.15 11.69 1.55 26.07 3.77l26 4.27zm-.77 4.96c0 .15-11.69-1.54-26.07-3.76l-26-4.27c0-.14 11.69 1.54 26.07 3.76l26 4.27zm-.76 4.97c0 .14-11.7-1.54-26.07-3.76l-26-4.28c0-.15 11.69 1.54 26.07 3.76l26 4.28zm-26.72.46a4.53 4.53 0 0 1-1-.06l-2.8-.35-9.22-1.34-9.19-1.5-2.78-.51a3.8 3.8 0 0 1-1-.26 3.91 3.91 0 0 1 1 .06l2.8.35 9.22 1.34 9.19 1.5 2.78.51a3.8 3.8 0 0 1 1 .26zm34.72-37.33a17.27 17.27 0 0 1-4.21-.39 17.08 17.08 0 0 1-4.13-.9 34.62 34.62 0 0 1 8.34 1.29zm-48.23 46.32a45.35 45.35 0 0 1-6.8-.79 44.76 44.76 0 0 1-6.72-1.3 45.22 45.22 0 0 1 6.8.79 45.6 45.6 0 0 1 6.72 1.3zm-.24 4.58a47.06 47.06 0 0 1-6.92-.81 44.6 44.6 0 0 1-6.83-1.32 46.86 46.86 0 0 1 6.91.81 44.58 44.58 0 0 1 6.84 1.32zm39.56.8a21.34 21.34 0 0 1-6.53-1 11 11 0 0 1 3.31.24 10.24 10.24 0 0 1 3.22.76zm-.4 4.09a21.34 21.34 0 0 1-6.53-1 21.34 21.34 0 0 1 6.53 1zm-46.2-1.13a10.45 10.45 0 0 1-3.2-.23 9.91 9.91 0 0 1-3.11-.75 10 10 0 0 1 3.19.23 9.8 9.8 0 0 1 3.12.75zm45.7 5.9a5.85 5.85 0 0 1-2.41-.11 5.78 5.78 0 0 1-2.33-.62 5.56 5.56 0 0 1 2.41.1 5.69 5.69 0 0 1 2.33.63zm-54.08 3.75a6.68 6.68 0 0 1 1.18 0l3.32.1 11.86.47h.27l-.06.26a5.68 5.68 0 0 1-2.08 3.23 4.71 4.71 0 0 1-4 .91 4.66 4.66 0 0 1-3.29-2.85 4 4 0 0 1 1.22-4.32 3.67 3.67 0 0 1 1.58-.84 2.34 2.34 0 0 1 .45-.07 2 2 0 0 1 .49 0 .69.69 0 0 1 .51.38 1.07 1.07 0 0 1 .06.54 7.83 7.83 0 0 1-1.09 3.16 8 8 0 0 1-2.21 2.34 5 5 0 0 1-3 1 2.81 2.81 0 0 1-2.4-1.73 4.21 4.21 0 0 1-.2-2.79 10.1 10.1 0 0 1 2.8-4l.27-.27v.38a6.82 6.82 0 0 1-.76 4 7.21 7.21 0 0 1-2 2.37 6.26 6.26 0 0 1-1.71.94 2.42 2.42 0 0 1-.66.16 8.06 8.06 0 0 0 2.25-1.26 7.28 7.28 0 0 0 1.85-2.34 6.54 6.54 0 0 0 .65-3.84l.32.1a9.87 9.87 0 0 0-2.65 3.88 3.77 3.77 0 0 0 .2 2.49 2.34 2.34 0 0 0 2 1.44 4.42 4.42 0 0 0 2.64-.91 7.31 7.31 0 0 0 3.07-5.14.55.55 0 0 0 0-.27c0-.05 0-.07-.14-.09a2.37 2.37 0 0 0-.72.07 3.26 3.26 0 0 0-1.36.72 3.53 3.53 0 0 0-1.07 3.76 4.18 4.18 0 0 0 6.51 1.72 5.17 5.17 0 0 0 1.93-2.94l.21.27-11.76-.69-3.32-.22a9.36 9.36 0 0 1-1.16-.12zm49.42 7.45a2.81 2.81 0 0 1-.57.6 3.57 3.57 0 0 1-.85.54 1.92 1.92 0 0 1-1.37.07 1.33 1.33 0 0 1-.7-.51 1.79 1.79 0 0 1-.28-.88 15.92 15.92 0 0 1 .14-1.91l.44-4.46.43.17-3.82 5.17-.95 1.28-.62.84.15-1 1.11-7.35.37.2a23.44 23.44 0 0 0-4.11 4.5l-1.29 1.94a2.15 2.15 0 0 1 .23-.57 16.53 16.53 0 0 1 .85-1.51 21.24 21.24 0 0 1 4-4.7l.45-.39-.09.6-1 7.36-.47-.2 1-1.28 3.85-5.15.53-.72-.1.89-.52 4.45a17.14 17.14 0 0 0-.18 1.85 1.13 1.13 0 0 0 .72 1.13 2.18 2.18 0 0 0 2-.46 5 5 0 0 1 .65-.5z"/><path d="M284.7 336.78a93.08 93.08 0 0 1-9.81.21 93.14 93.14 0 0 1-9.8-.3 91.2 91.2 0 0 1 9.8-.22 91.5 91.5 0 0 1 9.81.31zm3.19 3.11a61.36 61.36 0 0 1-7.84 1.11 61.88 61.88 0 0 1-7.89.6 57.59 57.59 0 0 1 7.84-1.12 58.54 58.54 0 0 1 7.89-.59z"/></g><g class="C"><path d="M200.93 236.93c-.12 3 .69 6.06 3.19 7.75-3.13 1.52-4.8 5.16-4.9 8.64s1.11 6.86 2.42 10.09c4.05 9.93 12.69 23.91 19.28 32.37l-4.3-11.11c-4.34-9.49-8.17-19-12.52-28.52-.48-1-1.34-3.92-1.34-3.92a5.55 5.55 0 0 0 1.3-.89c2.44-2 7.73-5.51 7.73-5.51s-10.86-8.6-10.86-8.9"/></g><path d="M200.78 257.33c.14 0-.11 11.55-.57 25.78l-1.08 25.76c-.14-.01.1-11.54.56-25.78l1.09-25.76zM218 227h-1c0-.38 1.45-38.21 2.58-53.27a7.77 7.77 0 0 1 2.63-5.56c3.12-2.67 7.79-2.32 8-2.31l-.08 1c-.05 0-4.46-.32-7.26 2.07a6.86 6.86 0 0 0-2.29 4.88c-1.1 14.95-2.53 52.77-2.58 53.19z" class="B"/><path d="M227.37 290.28h-1.77v-2h1.77a7 7 0 0 0 7-7V260.1h2v21.18a9 9 0 0 1-9 9z" class="F"/><path d="M228.09 289.52a2.15 2.15 0 1 1-1.93-2.35 2.16 2.16 0 0 1 1.93 2.35z" class="B"/><path d="M210.07,290.23H208.3a9,9,0,0,1-9-9l.08-21.18h2l-.08,21.18a7,7,0,0,0,7,7h1.77Z" class="F"/><g class="B"><path d="M207.59 289.46a2.14 2.14 0 1 0 1.93-2.34 2.14 2.14 0 0 0-1.93 2.34zm-8.8-26.97l-.25-15.1c-.19-11.51 8.22-21 18.75-21.19a18.28 18.28 0 0 1 13.65 5.94 21.8 21.8 0 0 1 5.79 14.61l.25 15.11-3 .05-.25-15.11a18.77 18.77 0 0 0-5-12.61 15.2 15.2 0 0 0-11.41-5c-8.88.15-16 8.28-15.8 18.14l.25 15.1zm85.42-34.93c0-.4-4.59-39.71-5.91-52.31l-.09-.92c-.41-4.28-.89-9.12-5.62-10.4l.26-1c5.4 1.46 5.93 6.9 6.36 11.27l.09.91 5.9 52.31z"/><circle cx="284.71" cy="220.82" r="10.73" transform="matrix(.707107 -.707107 .707107 .707107 -72.75 266)"/></g><path d="M289.89 220.82a5.19 5.19 0 1 1-5.18-5.19 5.18 5.18 0 0 1 5.18 5.19z" class="F"/><path d="M221.27,296.58,207.8,329.71,315.25,359.5a34.46,34.46,0,0,0,29.06-5h0c11.24-7.93,14-21.8,12.63-35.53L355,304.37Z" class="D"/><path d="M335.11 332.54c-.11 0-.34-2.26-1.45-5.75a29 29 0 0 0-1-2.81c-.38-1-.91-2-1.44-3.12a41.54 41.54 0 0 0-4.33-6.55 42.07 42.07 0 0 0-5.56-5.54l-2.77-2a29 29 0 0 0-2.55-1.57c-3.2-1.77-5.39-2.45-5.35-2.56a8.33 8.33 0 0 1 1.53.47 15.19 15.19 0 0 1 1.75.69l2.25 1.08a26.55 26.55 0 0 1 2.61 1.53c.93.56 1.85 1.29 2.83 2a40.67 40.67 0 0 1 5.67 5.58 39.93 39.93 0 0 1 4.34 6.66l1.42 3.18a26.31 26.31 0 0 1 1 2.86 20.91 20.91 0 0 1 .61 2.42A12.37 12.37 0 0 1 335 331a8.48 8.48 0 0 1 .11 1.54z" class="B"/><g class="C"><path d="M205.4,310.68c-8.2.68-14.53,1.43-23,2.47-5.29.65-10.78.28-12.51-4.75s-.63-10.79,2.21-15.3,7.3-15,31.18-7Z"/></g><path d="M216.46 309.23l.06-.22.23-.66.9-2.52 3.45-9.31.05-.13h.13l36.55 3.31 35.36 3.36 10.71 1.07 2.91.32.75.1a.82.82 0 0 1 .26.05h-.26-.76l-2.92-.22-10.73-.92-35.37-3.2-36.53-3.47.18-.12-3.6 9.26-1 2.48-.27.64c-.05.12-.09.19-.1.18z" class="B"/><g class="C"><path d="M260.67,343.4c15.26,4.09,24.54,1.72,38.4-5.86a74.57,74.57,0,0,0,8.16-5.54,29.49,29.49,0,0,0,5.23-5.55c-17.85,6.83-32.68,12-51.08,17.14"/></g><path d="M216.51,308.87l3.49-9.75-8.11-12.68a9.57,9.57,0,0,0-6.28-4.25l-29.84-5.63a4.81,4.81,0,0,0,2.52,5.87c3.91,2.23,21.5,6.32,21.5,6.32l-27.09-.46s-.84,3.91,2.23,5.31,22.37,2.11,22.37,2.11l-24.71,3.48s-.14,3.92,5.51,4a163.46,163.46,0,0,0,16.65-1.05.89.89,0,0,1,1,.73h0a.89.89,0,0,1-.67,1l-16.43,3.88a2.2,2.2,0,0,0-.16,4.25,2.69,2.69,0,0,0,.91.06c2.8-.28,19.52-2.4,19.52-2.4l.87,1.95,16.72-2.72" class="K"/><path d="M204.24 305.86a5.58 5.58 0 0 0-.92-1.48 4.07 4.07 0 0 0-1.58-1 6.15 6.15 0 0 0-2.28-.25c-1.66.12-3.16.6-4.28.74a3.9 3.9 0 0 1-1.84 0 15.4 15.4 0 0 1 1.77-.39 26.91 26.91 0 0 1 4.32-.9 6.1 6.1 0 0 1 2.48.32 4.27 4.27 0 0 1 1.68 1.18 2.11 2.11 0 0 1 .65 1.78zm2.7-7.43c-.05 0-.08-.27-.3-.7a3.44 3.44 0 0 0-1.42-1.4c-1.51-.88-4.06-.59-6.74-.41s-5.14.58-6.91.81a16.67 16.67 0 0 1-2.88.29 14.57 14.57 0 0 1 2.82-.65 69.4 69.4 0 0 1 6.92-1 37.3 37.3 0 0 1 3.86-.15 6.14 6.14 0 0 1 3.11.76 3.32 3.32 0 0 1 1.42 1.64 1.32 1.32 0 0 1 .12.81zm2.06-4.32a4.88 4.88 0 0 0-.63-2.26 5.13 5.13 0 0 0-1.8-1.75 8 8 0 0 0-3-.88c-2.24-.21-4.34 0-5.87-.12a5.24 5.24 0 0 1-2.39-.58c0-.08.92.19 2.41.22s3.56-.25 5.91 0a7.52 7.52 0 0 1 3.17 1 5.16 5.16 0 0 1 1.88 2 3.59 3.59 0 0 1 .45 1.78c-.02.37-.13.59-.13.59z" class="G"/><path d="M305.87 294.08a9.22 9.22 0 0 1 .15-1.62l.73-4.38c.69-3.68 1.91-8.71 3.2-14.26a128.44 128.44 0 0 0 2.61-14.34c.12-.93.17-1.77.24-2.51s.11-1.37.13-1.9a8.56 8.56 0 0 1 .14-1.62 9.94 9.94 0 0 1 .06 1.63v1.91c0 .74-.06 1.59-.17 2.52a105.9 105.9 0 0 1-2.46 14.43l-3.35 14.22-.89 4.33a10.07 10.07 0 0 1-.39 1.59zm10.37 65.6a2 2 0 0 1-.59-.1l-1.66-.37-6.08-1.5-20-5.32-19.84-5.78-6-1.86-1.62-.54a2.27 2.27 0 0 1-.45-.21 2.17 2.17 0 0 1 .58.12l1.65.44 6 1.71 19.88 5.63 19.89 5.46 6 1.65 1.64.47a3 3 0 0 1 .6.2zM213.3 69.63c2.2-6.79 13.47-12.92 19.65-16.48 9.25-5.31 17.82-4.25 23.1.48 9.54-8 22.11-15.7 34.16-12.55s21.84 15.49 19.64 27.76c-1.29 7.23-6.3 13.71-6 21 .2 5 2.85 9.52 5 14.06s3.73 9.82 1.85 14.46c-1.75 4.31-6.12 7-8.47 11-1.92 3.28-2.36 7.18-3.59 10.77-4.54 13.3-20.24 20.76-34.1 18.42s-25.41-12.77-32-25.21-8.71-26.72-9.47-40.75" class="B"/><path d="M223.51 79l2.77 110.9c1 12.71 12.71 22 26.31 20.82h0c13.73-1.18 24.22-12.55 23.43-25.41l-1.45-27.72s17.19-4 19.33-26.92c1.09-11.74-.81-31-2.8-46.26a22.74 22.74 0 0 0-26.4-19.52" class="K"/><path d="M286 100.8a2.9 2.9 0 0 1-2.61 3.11 2.78 2.78 0 0 1-3.17-2.42 2.92 2.92 0 0 1 2.61-3.12 2.79 2.79 0 0 1 3.17 2.43zm2.89-2.96c-.34.4-2.65-1.09-5.78-.88s-5.32 1.92-5.68 1.56c-.18-.16.14-.86 1.09-1.66a8 8 0 0 1 4.53-1.72 7.72 7.72 0 0 1 4.62 1.17c1.01.69 1.38 1.34 1.22 1.53zm-32.89 6.1a2.9 2.9 0 0 1-2.61 3.12 2.79 2.79 0 0 1-3.17-2.43 2.92 2.92 0 0 1 2.61-3.12 2.79 2.79 0 0 1 3.17 2.43zm2.16-3.53c-.34.4-2.65-1.09-5.78-.88s-5.32 1.92-5.68 1.56c-.18-.16.14-.86 1.1-1.66a8 8 0 0 1 4.52-1.72 7.72 7.72 0 0 1 4.62 1.17c1.06.68 1.38 1.34 1.22 1.53zM271 122.88c0-.17 1.89-.63 5-1.24.79-.13 1.54-.34 1.64-.9a4.05 4.05 0 0 0-.69-2.33l-2.75-5.93c-3.84-8.46-6.68-15.43-6.34-15.58s3.73 6.58 7.58 15l2.65 6a4.57 4.57 0 0 1 .62 3.11 2 2 0 0 1-1.24 1.25 5 5 0 0 1-1.34.27c-3.13.39-5.13.53-5.13.35z" class="B"/><path d="M274.58,157.55a57.82,57.82,0,0,1-30.9-6.14s8.59,15.27,31.15,11.68Z" class="G"/><path d="M258.18 88.09c-.26.87-3.41.67-7.05 1.35s-6.55 1.87-7.09 1.14c-.24-.35.23-1.19 1.37-2.09a12 12 0 0 1 5.16-2.19 12.12 12.12 0 0 1 5.61.29c1.38.46 2.1 1.09 2 1.5zm28.97.76c-.5.75-2.71.15-5.3.28s-4.76.79-5.31.08c-.25-.35 0-1.08 1-1.82a7.68 7.68 0 0 1 8.55-.28c.91.67 1.28 1.38 1.06 1.74z" class="B"/><path d="M266.16,128.77c2.45,0,3.67.72,5.75,2a3.59,3.59,0,0,1,1.48,1.46,3.1,3.1,0,0,1-.31,2.72,5.47,5.47,0,0,1-5.19,2.77,5,5,0,0,1-4.35-3.85,4.69,4.69,0,0,1,2.62-5.12" class="G"/><path d="M274.47 134c0 .24-.78.6-2.15.52a11.65 11.65 0 0 1-4.9-1.6 13.63 13.63 0 0 1-3.93-3.29c-.81-1-1.06-1.88-.85-2 .41-.27 2.47 1.89 5.71 3.67a24.78 24.78 0 0 0 4.21 1.93c1.12.38 1.88.51 1.91.77z" class="B"/><g class="G"><circle cx="259.02" cy="113.65" r=".83"/><path d="M283.35 109.58a.83.83 0 1 1-.83-.83.83.83 0 0 1 .83.83zm4.59 2.16a.84.84 0 1 1-1.67 0 .84.84 0 0 1 1.67 0zm1.39-3.47a.83.83 0 1 1-.83-.83.83.83 0 0 1 .83.83zm-33.28 9.05a.84.84 0 1 1-.84-.83.84.84 0 0 1 .84.83zm-3.12-3.32a.83.83 0 1 1-.83-.83.83.83 0 0 1 .83.83z"/></g><g fill="#fff"><path d="M266.53 103.94a22.93 22.93 0 0 0-.55-3.5 14.37 14.37 0 0 0-5.26-7.83 14.07 14.07 0 0 0-6-2.64 14.28 14.28 0 0 0-7.46.63 13.29 13.29 0 0 0-3.58 1.94 13.6 13.6 0 0 0-3 3 14.16 14.16 0 0 0 0 16.77 14.38 14.38 0 0 0 6.58 5 14.28 14.28 0 0 0 7.46.63 14.07 14.07 0 0 0 6-2.64 14.39 14.39 0 0 0 5.26-7.82 23.32 23.32 0 0 0 .55-3.5.6.6 0 0 1 0 .23v.69a7.13 7.13 0 0 1-.09 1.12 9.79 9.79 0 0 1-.27 1.5 13.63 13.63 0 0 1-1.56 3.9 14.55 14.55 0 0 1-17.52 6.34 14 14 0 0 1-3.72-2 13.7 13.7 0 0 1-3.11-3.11 14.58 14.58 0 0 1 0-17.37 13.7 13.7 0 0 1 3.11-3.11 14 14 0 0 1 3.72-2 14.65 14.65 0 0 1 7.7-.6 14.62 14.62 0 0 1 9.82 6.94 13.74 13.74 0 0 1 1.56 3.9 9.69 9.69 0 0 1 .27 1.51 6.93 6.93 0 0 1 .09 1.11v.69a.64.64 0 0 1 0 .22z"/><path d="M272.8 99.57a11.37 11.37 0 0 0-3.42-.4 11.9 11.9 0 0 0-3.27 1.1s.21-.38.77-.76a5.57 5.57 0 0 1 2.44-.86 5.39 5.39 0 0 1 2.58.34c.62.25.93.52.9.58z"/></g><g class="B"><path d="M263.66 61.65c-2 18.07-15.44 34.34-32.78 39.82 5.59 8.06 2.07 23.4 2.21 36.2.14 11.9.13 15.3-7.58 21.37-6.37 1.53-10-15.92-14.78-20.8s-9.27-10.89-8.92-17.67c.17-3.18 1.41-6.22 1.58-9.39.2-3.52-.93-7-1.55-10.43-2.76-15.35 5.16-31.86 18.57-39.89s31.22-7.49 44.49.72"/><path d="M225.39 135.94A43.8 43.8 0 0 0 217 120l.29.62a19.63 19.63 0 1 0-30.23 23.22c-2.25-.5-4.53 1.44-5 3.69a8.55 8.55 0 0 0 1.69 6.52c4.69 6.86 15.32 8.67 22 3.75 5.3 3.59 13.13 1.5 17.06-3.55s4.39-12.17 2.58-18.31z"/></g><g class="F"><path d="M203.92 109.47a4.89 4.89 0 0 1-.57-.64 6.68 6.68 0 0 1-1-2.21c-.61-2.07-.32-5.34 1.32-8.8a17.37 17.37 0 0 1 3.62-5.07 33.93 33.93 0 0 1 5.44-4.63 28.53 28.53 0 0 1 7.07-3.54c2.59-.89 5.34-1.58 8.14-2.28l8.1-2.29a49.82 49.82 0 0 0 7.17-3.12 53.19 53.19 0 0 0 10.79-7.6 54.57 54.57 0 0 0 6.08-6.55l1.47-2a4.59 4.59 0 0 1 .53-.66 6.09 6.09 0 0 1-.44.72l-1.4 2a49.68 49.68 0 0 1-6 6.7 52.71 52.71 0 0 1-10.84 7.76 50.21 50.21 0 0 1-7.23 3.17c-2.59.91-5.34 1.61-8.14 2.32L219.92 85a28.62 28.62 0 0 0-7 3.45 35.09 35.09 0 0 0-5.4 4.54A17.2 17.2 0 0 0 204 98c-1.65 3.37-2 6.56-1.45 8.59a7.85 7.85 0 0 0 1.37 2.88z"/><path d="M262.06 60.13a5.38 5.38 0 0 1-.47.57l-1.44 1.56a63.51 63.51 0 0 1-5.77 5.25 40.37 40.37 0 0 1-9.92 6 38.21 38.21 0 0 1-6.62 1.79l-7.24 1.21a80.51 80.51 0 0 0-13.79 2.89 30.31 30.31 0 0 0-10 5.53 19.73 19.73 0 0 0-4.82 6 19.3 19.3 0 0 0-.83 1.94 3.28 3.28 0 0 1-.29.68 5.25 5.25 0 0 1 .19-.71 14.25 14.25 0 0 1 .75-2 19.08 19.08 0 0 1 4.76-6.18 30 30 0 0 1 10.07-5.7 79.2 79.2 0 0 1 13.86-3l7.22-1.19a38.47 38.47 0 0 0 6.55-1.74 41 41 0 0 0 9.86-5.83 72.68 72.68 0 0 0 5.87-5.09l1.51-1.48a3.69 3.69 0 0 1 .55-.5z"/><path d="M287.45 40.35c0 .11-1.95.18-5 1a23.41 23.41 0 0 0-2.44.78c-.87.29-1.75.72-2.7 1.14a30.28 30.28 0 0 0-10.42 8.28l-1.72 2.38a22.15 22.15 0 0 0-1.31 2.19c-1.47 2.76-2 4.66-2.08 4.62a6.46 6.46 0 0 1 .34-1.32 11.41 11.41 0 0 1 .54-1.52 18.48 18.48 0 0 1 .88-2 19.65 19.65 0 0 1 1.27-2.26c.47-.8 1.08-1.59 1.7-2.44a32.69 32.69 0 0 1 4.81-4.83 32 32 0 0 1 5.79-3.58 26.09 26.09 0 0 1 2.76-1.11 25.29 25.29 0 0 1 4.58-1.14 11 11 0 0 1 1.6-.19 6 6 0 0 1 1.4 0zm16.11 86.34s0-.07.15-.2l.47-.55 1.76-2.19a12.29 12.29 0 0 0 2-3.89 7 7 0 0 0 .21-2.69 7.69 7.69 0 0 0-1-2.85c-1.08-1.87-2.85-3.5-4.47-5.52a32.29 32.29 0 0 1-6.77-15.8 65.59 65.59 0 0 1-.24-9.75 33.92 33.92 0 0 0-.89-9.59 19.73 19.73 0 0 0-10.84-12.46 18.17 18.17 0 0 0-6.84-1.58 20 20 0 0 0-12.32 3.63l-.6.42c-.13.09-.2.14-.21.13a14.28 14.28 0 0 1 3.11-2.18 20 20 0 0 1 10-2.37 18.66 18.66 0 0 1 7 1.55 20.08 20.08 0 0 1 11.16 12.73 34.39 34.39 0 0 1 .91 9.73 65.82 65.82 0 0 0 .23 9.68 31.88 31.88 0 0 0 6.62 15.59c1.58 2 3.36 3.66 4.46 5.61a7.87 7.87 0 0 1 1 3 7.19 7.19 0 0 1-.26 2.81 12.12 12.12 0 0 1-2.13 3.93 24.7 24.7 0 0 1-1.84 2.14l-.52.52a.87.87 0 0 1-.15.15z"/></g><path d="M301.24 100.41a23.13 23.13 0 0 0-.55-3.5 14.37 14.37 0 0 0-5.26-7.83 14.26 14.26 0 0 0-13.46-2 14.38 14.38 0 0 0-6.58 5 14.14 14.14 0 0 0 0 16.76 13.23 13.23 0 0 0 3 3 13.53 13.53 0 0 0 3.58 1.93 14.3 14.3 0 0 0 18.72-9.83 23.13 23.13 0 0 0 .55-3.5.64.64 0 0 1 0 .24v.68a7 7 0 0 1-.09 1.12 10.11 10.11 0 0 1-.27 1.51 13.74 13.74 0 0 1-1.56 3.9 14.63 14.63 0 0 1-3.67 4.17 14.56 14.56 0 0 1-13.85 2.16 13.64 13.64 0 0 1-3.72-2 14 14 0 0 1-3.11-3.12 14.56 14.56 0 0 1 0-17.36 13.7 13.7 0 0 1 3.11-3.11 14 14 0 0 1 3.72-2 14.66 14.66 0 0 1 7.7-.61 14.58 14.58 0 0 1 9.82 7 13.58 13.58 0 0 1 1.56 3.89 10.11 10.11 0 0 1 .27 1.51 7 7 0 0 1 .09 1.12v.69a.6.6 0 0 1 0 .18z" fill="#fff"/><g class="F"><path d="M225.37 159.41a2.23 2.23 0 0 1-.49-.33l-1.33-1a41.55 41.55 0 0 1-4.54-4.23 16.42 16.42 0 0 1-4.28-8.12 38.79 38.79 0 0 1-.24-5.44 9.41 9.41 0 0 0-1.56-5.36 32.92 32.92 0 0 0-3.91-4.24 15.92 15.92 0 0 1-3.22-4.43 19.63 19.63 0 0 1-1.56-4.7 18.77 18.77 0 0 1-.41-4.29c0-1.33.31-2.49.43-3.51a11.9 11.9 0 0 0 .06-2.63c-.17-1.44-.45-2.21-.4-2.23a2.88 2.88 0 0 1 .22.55 11.56 11.56 0 0 1 .38 1.65 11.26 11.26 0 0 1 0 2.69l-.36 3.49a20.68 20.68 0 0 0 2 8.77 15.5 15.5 0 0 0 3.15 4.28 32.32 32.32 0 0 1 4 4.3 8.7 8.7 0 0 1 1.27 2.75 13.23 13.23 0 0 1 .37 2.89 40.47 40.47 0 0 0 .21 5.38 16.28 16.28 0 0 0 4.07 8 46.54 46.54 0 0 0 4.41 4.31L225 159a2.83 2.83 0 0 1 .37.41z"/><path d="M214 136.12a1.61 1.61 0 0 1 0 .41c0 .27 0 .66-.08 1.17a18.67 18.67 0 0 1-1 4.21 20.55 20.55 0 0 1-22.66 13.57 18.88 18.88 0 0 1-4.17-1.13c-.48-.18-.83-.38-1.07-.49s-.36-.19-.35-.21a29.57 29.57 0 0 0 5.64 1.47 21.64 21.64 0 0 0 6.29-.11 19.94 19.94 0 0 0 12.92-7.73 21.6 21.6 0 0 0 3.06-5.49 30.77 30.77 0 0 0 1.42-5.67zm-3.85-4.7a5.87 5.87 0 0 1-.29 1.37 19.8 19.8 0 0 1-1.41 3.55 23.06 23.06 0 0 1-8.52 9.13 24.85 24.85 0 0 1-12 3.52 23 23 0 0 1-3.81-.2 6.29 6.29 0 0 1-1.37-.28 51.21 51.21 0 0 0 5.17.11 25.63 25.63 0 0 0 11.75-3.6 23.72 23.72 0 0 0 8.46-8.86 39.27 39.27 0 0 0 2.02-4.74zm-29.25-9.96a3.77 3.77 0 0 1 .9-.52 8.55 8.55 0 0 1 1.11-.5 14.1 14.1 0 0 1 1.53-.54 21 21 0 0 1 4.13-.8 24.24 24.24 0 0 1 5.15.1 24.64 24.64 0 0 1 5 1.25 20.83 20.83 0 0 1 3.76 1.9 13.22 13.22 0 0 1 1.31.94 7.41 7.41 0 0 1 .93.79 4.3 4.3 0 0 1 .71.76c-.07.08-1.12-1-3.15-2.18a22.56 22.56 0 0 0-3.73-1.76 27.05 27.05 0 0 0-4.9-1.18 26.37 26.37 0 0 0-5-.15 22.87 22.87 0 0 0-4.07.69c-2.32.6-3.58 1.29-3.68 1.2z"/></g><path d="M203.92 119.61c-.09.11-6.4-5.25-14.08-12l-13.75-12.35c.09-.11 6.4 5.26 14.09 12l13.74 12.35z" class="D"/><path d="M232.73 108.66a6.16 6.16 0 0 1 2.06-2.32 6.1 6.1 0 0 1 2.72-1.5 18.31 18.31 0 0 1-2.4 1.9 19.8 19.8 0 0 1-2.38 1.92z" fill="#fff"/><path d="M204.65 114.29a1.23 1.23 0 0 1-.13-.2l-.34-.61a8.88 8.88 0 0 1-.78-2.56 12.8 12.8 0 0 1 2.64-9.3 14.73 14.73 0 0 1 2.23-2.41 17.82 17.82 0 0 1 2.94-2 25.93 25.93 0 0 1 7.38-2.54c5.41-1.13 11.5-.86 17.7-1.78A27.25 27.25 0 0 0 245 90.2a26 26 0 0 0 6.68-5.2 41.13 41.13 0 0 0 7.74-12.12c1.64-3.79 2.67-7 3.42-9.16l.85-2.53.23-.65a1.35 1.35 0 0 1 .09-.22v.23l-.18.67-.83 2.6a92.52 92.52 0 0 1-3.27 9.24A40.86 40.86 0 0 1 252 85.37a26.22 26.22 0 0 1-6.82 5.28 27.42 27.42 0 0 1-8.84 2.76c-6.28.94-12.34.64-17.69 1.74s-9.94 3.33-12.35 6.69a12.72 12.72 0 0 0-2.72 9 11.49 11.49 0 0 0 1.07 3.45z" class="J"/><path d="M211 154a14.83 14.83 0 0 1-1.2 4 18.64 18.64 0 0 1-2.61 4.25 17.54 17.54 0 0 1-5.06 4.26 16.56 16.56 0 0 1-7.74 2 15.1 15.1 0 0 1-8.78-2.57 14.7 14.7 0 0 1-5.82-8.23 12.77 12.77 0 0 1-.3-5.41 13.12 13.12 0 0 1 2.09-5.18 12.52 12.52 0 0 1 7.43-5.26v.5a20.07 20.07 0 0 1-8.58-3.49 16.49 16.49 0 0 1-5.46-6.55 15.42 15.42 0 0 1-1.33-7.53 12.77 12.77 0 0 1 2.17-6.23 13 13 0 0 1 4-3.7 12.31 12.31 0 0 1 3.79-1.46 10.53 10.53 0 0 1 2.54-.19l.65.07a.74.74 0 0 1 .22 0 13.23 13.23 0 0 0-3.38.26 12.14 12.14 0 0 0-3.68 1.51 12.75 12.75 0 0 0-3.82 3.66 12.43 12.43 0 0 0-2.05 6.07 15.15 15.15 0 0 0 1.34 7.31 16.11 16.11 0 0 0 5.33 6.34 19.9 19.9 0 0 0 8.38 3.39l1.29.2-1.27.3a12 12 0 0 0-7.12 5.06 12.6 12.6 0 0 0-2 5 12.46 12.46 0 0 0 .28 5.2 14.23 14.23 0 0 0 5.61 8 14.71 14.71 0 0 0 8.5 2.53 16.19 16.19 0 0 0 7.57-1.91 17.29 17.29 0 0 0 5-4.11 19.19 19.19 0 0 0 2.66-4.15 22.54 22.54 0 0 0 1.11-2.92l.21-.79zm-5.89-43.25a.92.92 0 0 1-.24-.11l-.7-.37a18.52 18.52 0 0 1-2.49-1.71 21 21 0 0 1-6.42-9 20.8 20.8 0 0 1 7-23.64 29.27 29.27 0 0 1 9.39-4.6A52.55 52.55 0 0 1 222 69.49l9.68-.68a84.89 84.89 0 0 0 8.7-1 39.58 39.58 0 0 0 7.33-2 26.28 26.28 0 0 0 9.22-5.81 22.53 22.53 0 0 0 1.93-2.29l.46-.63a1.06 1.06 0 0 1 .17-.21 15.37 15.37 0 0 1-2.42 3.27 25.59 25.59 0 0 1-9.26 6 39.35 39.35 0 0 1-7.39 2.07 83.2 83.2 0 0 1-8.74 1c-6.15.49-13 .54-19.85 2.57a29.17 29.17 0 0 0-9.23 4.5 20.5 20.5 0 0 0-7 23.12 21.14 21.14 0 0 0 6.2 8.92 20.46 20.46 0 0 0 2.42 1.78l.66.41a1.23 1.23 0 0 1 .23.24zM316.55 96a1.29 1.29 0 0 1-.93.46 2.59 2.59 0 0 1-2.44-1.59 2.36 2.36 0 0 1 .14-2.18 4.06 4.06 0 0 1 2-1.69 6.35 6.35 0 0 1 6.11 1 6.56 6.56 0 0 1 2.27 2.93 6.93 6.93 0 0 1 .28 4 6.6 6.6 0 0 1-2.22 3.69 7.94 7.94 0 0 1-4.21 1.78 11.06 11.06 0 0 1-8.9-3.5 12.51 12.51 0 0 1-2.85-4.33 9.87 9.87 0 0 1-.5-5.31 23.37 23.37 0 0 1 1.62-5.06l1.81-4.76a40.09 40.09 0 0 0 2-9.38 28.33 28.33 0 0 0-.52-8.62 22.35 22.35 0 0 0-2.85-7 19.67 19.67 0 0 0-8-7.3 18.17 18.17 0 0 0-2.79-1l-.76-.19a.9.9 0 0 1-.25-.09h.26l.77.14a15.54 15.54 0 0 1 2.86.95 19.54 19.54 0 0 1 8.19 7.3 22.46 22.46 0 0 1 3 7 28.55 28.55 0 0 1 .58 8.76 40.31 40.31 0 0 1-2 9.5l-1.82 4.79a23.79 23.79 0 0 0-1.58 5 9.36 9.36 0 0 0 .48 5 11.81 11.81 0 0 0 2.73 4.16 10.59 10.59 0 0 0 8.47 3.39 7.53 7.53 0 0 0 4-1.66 6.16 6.16 0 0 0 2.1-3.43 6.62 6.62 0 0 0-.23-3.78 6.35 6.35 0 0 0-2.12-2.79 6 6 0 0 0-5.78-1 3.76 3.76 0 0 0-1.89 1.54 2.15 2.15 0 0 0-.18 2 2.49 2.49 0 0 0 2.25 1.56 1.8 1.8 0 0 0 .9-.29z" class="B"/><g class="C"><path d="M310.17,322.32c4.86-1.37,9.9,3,14.83,1.87,3-.7,5.26-3.38,6.62-6.19s2.09-5.91,3.53-8.69,3.84-5.33,6.94-5.76c2.84-.38,6.21.95,8.32-1,1.63-1.5,1.41-4.28.11-6.07s-3.36-2.84-5.35-3.82a30.44,30.44,0,0,0-6.91-2.74,10.2,10.2,0,0,0-7.23.84c-4.16,2.42-5,7.91-6.21,12.57a25.18,25.18,0,0,1-4.08,9.11,13.53,13.53,0,0,1-8.24,5.32,8.9,8.9,0,0,0-3.67.94c-1.05.72-1.46,2.52-.37,3.19"/></g><path d="M284.84,304.35,303.06,298l16.33-25.53a10.87,10.87,0,0,1,7.12-4.82l29.29-5.53a4.81,4.81,0,0,1-2.51,5.87c-3.91,2.23-21.5,6.33-21.5,6.33l27.09-.46s.83,3.91-2.24,5.31-22.37,2.1-22.37,2.1L359,284.79s.14,3.93-5.51,4a163.93,163.93,0,0,1-16.65-1,.88.88,0,0,0-1,.73h0a.88.88,0,0,0,.67,1l16.43,3.88a2.2,2.2,0,0,1,.17,4.25,2.53,2.53,0,0,1-.92.06c-2.79-.28-19.52-2.4-19.52-2.4s-5.9,20.68-9.72,22.35-11.83,2.13-11.83,2.13l-17,6.73Z" class="K"/><path d="M357 273.78a6.51 6.51 0 0 1-1.42.14l-3.88.19-12.79.43-7.05.18a15.44 15.44 0 0 0-5.59.8 6 6 0 0 0-2.87 2.37 10.27 10.27 0 0 0-.57 1.28 1.15 1.15 0 0 1 0-.37 4.16 4.16 0 0 1 .36-1 6 6 0 0 1 2.91-2.61 15.17 15.17 0 0 1 5.72-.94l7-.22 12.8-.28h3.88a9 9 0 0 1 1.5.03zm.41 11.08a6.11 6.11 0 0 1-1.31-.09l-3.54-.45-11.67-1.66-6.4-.9a8.65 8.65 0 0 0-5 .9 7.85 7.85 0 0 0-2.59 2.32l-.71 1.09a1.1 1.1 0 0 1 .1-.33 5.88 5.88 0 0 1 .44-.88 7.54 7.54 0 0 1 2.58-2.52 8.77 8.77 0 0 1 5.22-1.06c2 .15 4.17.55 6.45.86l11.64 1.82 3.52.61a6.7 6.7 0 0 1 1.27.29zm-13.75 6.29a20.07 20.07 0 0 1-2.86-.62l-6.86-1.62a12 12 0 0 0-1.94-.29 3.53 3.53 0 0 0-1.66.49 6 6 0 0 0-2.19 2.08 8.15 8.15 0 0 0-.87 2.72 1.7 1.7 0 0 1-.06-.8 5.31 5.31 0 0 1 .6-2.1 6.13 6.13 0 0 1 2.28-2.32 4.16 4.16 0 0 1 1.89-.58 12.64 12.64 0 0 1 2.05.28l6.85 1.78a14.79 14.79 0 0 1 2.77.98z" class="G"/><path d="M149.59 318.08l54.65-6.72 95.85-15.58 12.37 31.09c-36 12.48-72.94 23.74-109.18 33.64a40.17 40.17 0 0 1-9 .76c-12.1.05-41.94-4.81-44.69-43.19z" class="D"/><g class="B"><path d="M312.46 326.87a5.55 5.55 0 0 1-.25-.55l-.69-1.63-2.54-6.24-9.09-22.6.23.13-46.57 7.78c-11 1.89-21.55 3.12-31.11 4.39-4.79.63-9.33 1.26-13.56 2q-3.18.51-6.12 1a50.35 50.35 0 0 0-5.57 1.22 22.75 22.75 0 0 0-13 10.56 23.69 23.69 0 0 0-1.91 4.27c-.17.51-.28.91-.35 1.17a2.34 2.34 0 0 1-.14.4 12 12 0 0 1 .39-1.6 22.36 22.36 0 0 1 1.83-4.34 23.32 23.32 0 0 1 4.58-5.87 23.06 23.06 0 0 1 8.52-4.94 52.54 52.54 0 0 1 5.61-1.27l6.12-1.08c4.24-.7 8.78-1.36 13.56-2 9.57-1.29 20.11-2.53 31.09-4.43l46.59-7.67h.17l.06.16 8.92 22.66 2.44 6.28.63 1.65c.16.39.16.55.16.55z"/><path d="M179 359.62a2.32 2.32 0 0 1 .44.09l1.27.31 4.93.88a53.9 53.9 0 0 0 18.29-.88l5.91-1.52 6.38-1.8 14-4 32.09-9.64c19-5.9 36.46-11.68 50-16.35l-.12.27-8.94-22.7-2.43-6.26-.62-1.64c-.15-.4-.19-.56-.19-.56s.09.18.25.54.38.93.67 1.62l2.53 6.21 9.11 22.64.08.2-.2.07c-13.56 4.74-31 10.55-50 16.46l-32.11 9.61-14.08 4-6.39 1.76c-2 .57-4 1.11-5.93 1.5a53.3 53.3 0 0 1-18.4.73 34.87 34.87 0 0 1-6.54-1.54zm21.18-48.26a6.54 6.54 0 0 1-1.37.21l-3.75.37-12.36 1.21-12.36 1.32-3.75.39a6.23 6.23 0 0 1-1.38.08 8.29 8.29 0 0 1 1.36-.28l3.73-.55c3.15-.44 7.51-1 12.34-1.47l12.39-1.06 3.77-.22a8.12 8.12 0 0 1 1.38 0z"/></g><use xlink:href="#B" class="D"/><g class="C"><use xlink:href="#B"/></g><path d="M94.33 431.6c-4.52-2.33-9.84-2.63-14.86-1.8-2.69.44-5.51 1.25-7.34 3.28s-2.18 5.59-.08 7.33a7.08 7.08 0 0 0 4.63 1.17c3.93-.05 8.29-.74 11.43 1.63 1.79 1.34 3 3.59 5.12 4.25A5.06 5.06 0 0 0 98.8 445a8.63 8.63 0 0 0 .63-6.38 9.74 9.74 0 0 0-5.1-7.02zm17.95-14.32c-3-3.57-3.57-8.76-2.23-13.22s4.35-8.26 7.82-11.36a42.17 42.17 0 0 1 14-8.27 14.7 14.7 0 0 1 6.3-1.07 6.59 6.59 0 0 1 5.29 3.2c1.48 2.81.06 6.23-1.47 9a105.85 105.85 0 0 1-9.21 14c-2.76 3.56-5.92 7.07-10.12 8.68s-8.58 1.42-10.81-1.5" class="D"/><g class="B"><path d="M104.88 471.16a8.17 8.17 0 0 1-.25-1.79l-.48-4.89a72 72 0 0 0-1.1-7.19 55.17 55.17 0 0 0-2.61-8.47 31.31 31.31 0 0 0-4.33-7.67 16.22 16.22 0 0 0-5.47-4.55 15.27 15.27 0 0 0-4.64-1.43 8.78 8.78 0 0 1-1.78-.26 8.45 8.45 0 0 1 1.81 0 14 14 0 0 1 4.81 1.25 16.16 16.16 0 0 1 5.77 4.59 30.5 30.5 0 0 1 4.49 7.82 53 53 0 0 1 2.59 8.62 60.47 60.47 0 0 1 1 7.27l.24 4.92a8.45 8.45 0 0 1-.05 1.78z"/><path d="M104.54 467.4a3.38 3.38 0 0 1-.05-.83v-2.39l-.11-8.74c-.18-7.38-.82-17.58-2-28.78s-2.91-21.28-4.38-28.51l-1-4.88c-.29-1.43-.59-2.66-.85-3.66s-.41-1.71-.56-2.32a4 4 0 0 1-.15-.82 3.23 3.23 0 0 1 .29.78l.7 2.28c.29.92.62 2.22 1 3.65a105.7 105.7 0 0 1 1.16 4.86 270 270 0 0 1 4.59 28.54c1.23 11.23 1.79 21.45 1.84 28.85 0 3.7 0 6.7-.13 8.76l-.15 2.38a3.29 3.29 0 0 1-.2.83z"/><path d="M104.49 447.68a16.2 16.2 0 0 1 0-2.48c.09-1.6.31-3.91.76-6.74a88.82 88.82 0 0 1 2.19-9.81 87.55 87.55 0 0 1 4.1-11.62 62 62 0 0 1 12.06-18.77 29.85 29.85 0 0 1 2.83-2.63l1.21-1 1.1-.76a17.08 17.08 0 0 1 2.1-1.34c.12.17-3 2-6.86 6.13a65.15 65.15 0 0 0-11.76 18.7 91.94 91.94 0 0 0-4.12 11.5 99.61 99.61 0 0 0-2.34 9.72l-1 6.67a15.06 15.06 0 0 1-.27 2.43z"/></g><path d="M395.58 130.6c-1-7.93-7.69-15.32-15.68-15.32-4.71 0-9.2 2.46-12.42 5.91a31.44 31.44 0 0 0-3.15 3.73 32.17 32.17 0 0 0-2.36-4.28c-2.48-4-6.39-7.31-11-8.24-7.84-1.56-15.86 4.36-18.39 11.94s-.42 16.08 3.73 22.9 11.3 15.75 24.47 20.17c9.07-1.16 21.23-9.21 26.64-15.09s9.14-13.79 8.16-21.72z" class="D"/><path d="M392.7 144.83h-.26l-.77-.05-3-.25-10.86-1 .19-.12-4.52 11.8-.28.71-.18-.74-4.55-18.9-1.47-6.15.46.1-8.29 11.4-.08.1H359l-19.09-2-5.4-.6-1.43-.18-.49-.09a2.7 2.7 0 0 1 .5 0l1.43.11 5.42.47 19.1 1.8-.21.1 8.25-11.43.33-.45.13.54 1.48 6.17 4.51 18.91h-.46l4.62-11.77.05-.13h.14l10.85 1.16 2.95.35.76.1z" class="J"/><path d="M94.473 286.3l16.175 4.791h0l-2.755 9.301a4.45 4.45 0 0 1-5.531 3.003l-7.671-2.272a4.45 4.45 0 0 1-3.003-5.531l2.755-9.301h0z" class="D"/><path d="M94.473 286.3l16.175 4.791h0l-2.758 9.31a4.43 4.43 0 0 1-5.506 2.989l-7.671-2.272a4.43 4.43 0 0 1-2.989-5.506l2.758-9.31-.01-.003z" opacity=".3"/><g class="B"><path d="M108.12 300.39a67.24 67.24 0 0 1-8.2-2.15 69 69 0 0 1-8-2.66 69.06 69.06 0 0 1 8.2 2.16 70.25 70.25 0 0 1 8 2.65z"/><path d="M97,297h0a2,2,0,0,1,2.47-1.41l3.24,1a2,2,0,0,1,1.3,2.52h0Z"/></g><path d="M109.93,207.73l-18,74.41a6.33,6.33,0,0,0,4.21,7.64l11.79,3.5a6.32,6.32,0,0,0,7.6-3.88l28.27-71.65Z" class="D"/><g class="B"><path d="M141.47 223.65c0 .14-7.46-1.94-16.57-4.64s-16.47-5-16.43-5.14 7.46 1.94 16.58 4.64 16.46 5 16.42 5.14z"/><path d="M111.07 214.72a10 10 0 0 1 .66-3.13 10.4 10.4 0 0 1 1.15-3 9.81 9.81 0 0 1-.65 3.13 9.93 9.93 0 0 1-1.16 3zm2.69.79a19.23 19.23 0 0 1 1.81-6.11 10 10 0 0 1-.66 3.13 10.26 10.26 0 0 1-1.15 2.98z"/><use xlink:href="#C"/><path d="M119.13,217.1a19.23,19.23,0,0,1,1.81-6.11,19.94,19.94,0,0,1-1.81,6.11Z"/><use xlink:href="#C" x="5.37" y="1.59"/><path d="M124.5,218.69a19.23,19.23,0,0,1,1.81-6.11,19.94,19.94,0,0,1-1.81,6.11Z"/><use xlink:href="#C" x="10.74" y="3.18"/><path d="M129.86 220.28a10.36 10.36 0 0 1 .66-3.13 9.8 9.8 0 0 1 1.16-3 10.36 10.36 0 0 1-.66 3.13 9.8 9.8 0 0 1-1.16 3zm2.69.8a9.77 9.77 0 0 1 .65-3.13 10.25 10.25 0 0 1 1.16-3 10 10 0 0 1-.66 3.13 10.08 10.08 0 0 1-1.15 3zm2.68.79a19.94 19.94 0 0 1 1.81-6.11 19.23 19.23 0 0 1-1.81 6.11zm2.69.8a9.77 9.77 0 0 1 .65-3.13 9.93 9.93 0 0 1 1.16-3 10 10 0 0 1-.66 3.13 10.08 10.08 0 0 1-1.15 3zm2.68.79a19.94 19.94 0 0 1 1.81-6.11 19.23 19.23 0 0 1-1.81 6.11z"/></g><path d="M114.28 246.63l1.27-4.26 4.21 1.25-1.18 3.99 3.44 1.01-1.24 4.19-3.81-1.12-1.08 3.65-3.52-1.05 1.16-3.92-4.15-1.23 1.1-3.71 3.8 1.2zm10.18 4.81c-.06 0 .22-.8.29-2.27a9.51 9.51 0 0 0-1.7-5.82 8.81 8.81 0 0 0-3.14-2.78 8.7 8.7 0 0 0-4.69-.93 9 9 0 0 0-4.88 2 9.57 9.57 0 0 0-3.07 10.36 8.93 8.93 0 0 0 3 4.32 8.76 8.76 0 0 0 4.44 1.77 8.87 8.87 0 0 0 4.15-.61 9.46 9.46 0 0 0 4.59-4c.75-1.27.94-2.08 1-2.06a2.2 2.2 0 0 1-.14.58 8.12 8.12 0 0 1-.68 1.58 9.53 9.53 0 0 1-4.63 4.21 9 9 0 0 1-9-1.12 9.37 9.37 0 0 1-3.2-4.54 10 10 0 0 1 3.2-10.9 9.32 9.32 0 0 1 5.16-2.07 9.06 9.06 0 0 1 4.93 1 9.25 9.25 0 0 1 3.25 2.95 9.5 9.5 0 0 1 1.59 6 8.7 8.7 0 0 1-.29 1.7 2.09 2.09 0 0 1-.18.63z" fill="#fff"/><defs ><path id="B" d="M104.69,411.61c-2.76,3.95-8.14,2.64-10.63.23s-3.54-5.9-4.5-9.23c-2.19-7.61-4.4-15.59-2.77-23.34a13,13,0,0,1,3-6.35,6.76,6.76,0,0,1,6.42-2.13c2.71.71,4.39,3.36,5.61,5.89a55.62,55.62,0,0,1,5.5,23.88c0,3.84-.44,7.88-2.61,11.05"/><path id="C" d="M116.44 216.31a10 10 0 0 1 .66-3.13 10.08 10.08 0 0 1 1.15-3 9.81 9.81 0 0 1-.65 3.13 9.93 9.93 0 0 1-1.16 3z"/></defs></svg>